PathFileType	4	(X/Y/Z)	RBDS017\RBDS017runT25.trc
DataRate	CameraRate	NumFrames	NumMarkers	Units	OrigDataRate	OrigDataStartFrame	OrigNumFrames
150.000000	150.000000	4	33	mm	150.000000	1125	4500
Frame#	Time	L.ASIS			L.Heel.Bottom			L.Heel.Lateral			L.Heel.Top			L.Iliac.Crest			L.MT1			L.MT5			L.PSIS			L.Shank.Bottom.Lateral			L.Shank.Bottom.Medial			L.Shank.Top.Lateral			L.Shank.Top.Medial			L.Thigh.Bottom.Lateral			L.Thigh.Bottom.Medial			L.Thigh.Top.Lateral			L.Thigh.Top.Medial			R.ASIS			R.ASY			R.Heel.Bottom			R.Heel.Lateral			R.Heel.Top			R.Iliac.Crest			R.MT1			R.MT5			R.PSIS			R.Shank.Bottom.Lateral			R.Shank.Bottom.Medial			R.Shank.Top.Lateral			R.Shank.Top.Medial			R.Thigh.Bottom.Lateral			R.Thigh.Bottom.Medial			R.Thigh.Top.Lateral			R.Thigh.Top.Medial			
		X1	Y1	Z1	X2	Y2	Z2	X3	Y3	Z3	X4	Y4	Z4	X5	Y5	Z5	X6	Y6	Z6	X7	Y7	Z7	X8	Y8	Z8	X9	Y9	Z9	X10	Y10	Z10	X11	Y11	Z11	X12	Y12	Z12	X13	Y13	Z13	X14	Y14	Z14	X15	Y15	Z15	X16	Y16	Z16	X17	Y17	Z17	X18	Y18	Z18	X19	Y19	Z19	X20	Y20	Z20	X21	Y21	Z21	X22	Y22	Z22	X23	Y23	Z23	X24	Y24	Z24	X25	Y25	Z25	X26	Y26	Z26	X27	Y27	Z27	X28	Y28	Z28	X29	Y29	Z29	X30	Y30	Z30	X31	Y31	Z31	X32	Y32	Z32	X33	Y33	Z33	

1126	7.500000000000001	2165.453985612545	1100.105104914435	888.8718245949381	1552.749920774855	268.9260216297845	950.2872771379092	1572.862117097087	262.2668801025115	909.1160651868377	1592.094899198335	291.3700168053975	942.6444827057778	2123.799240274273	1207.716192416857	852.1078935897752	1714.175424933801	107.7486965254122	962.212578531602	1658.040360315301	119.4273955375255	863.8913647785157	1999.137087388227	1182.578775685645	968.888457575244	1702.564494397022	332.5703833069856	878.2292460924155	1672.781734114625	356.3683258842892	918.2521255155373	1744.079143254374	400.7201700902576	868.5392297049218	1714.942295168847	424.8095211991236	906.5725459060249	1987.65475276675	721.7336319090562	843.6138727059416	1927.209935018566	730.7879099935774	881.975349678513	1996.156125389704	831.6643724674692	836.9656264933706	1941.080698899271	840.7264312548435	876.3710703733037	2157.569977022522	1106.472664296246	1160.552929046542	2314.484745026481	124.4008329532004	1131.659175257779	2121.645055533384	90.59777320824415	1071.350934217297	2137.37838612821	102.7586362403814	1118.72679371342	2132.119109253806	135.4079810223239	1083.192746291053	2107.959504485572	1209.826643337157	1200.4312199766	2344.680519397295	101.6009105661895	1086.312569727503	2288.115877674973	68.97899087075835	1182.064337248074	1994.051204046879	1181.132520552878	1072.815933309929	2176.018908066796	246.2669135798987	1151.603969491122	2143.980407340127	249.4880836002305	1111.433091839498	2167.483345599539	330.1112069423654	1163.25498242312	2132.044528678404	328.8026433985679	1123.004514901731	2164.152695920927	718.1372776925704	1183.825027583899	2108.317021747699	696.5605995038457	1141.913537607736	2115.762404807987	815.9894550415963	1194.056139554503	2062.66193058261	796.1376112865013	1154.854275196573	
1127	7.506666666666667	2166.269447630856	1100.354242101505	889.4084019358643	1544.373424441887	280.5440821040893	949.1449856595095	1564.179818287117	273.8940770880822	907.8335196430515	1584.270774030741	302.1313318950001	941.6133573328859	2124.264595070596	1208.037096082565	853.0641181353711	1702.190329566239	115.4280186535952	959.0548629202115	1646.032112220259	129.5214507616398	860.9448175199227	1999.569732366985	1182.41104299118	969.830997988615	1695.918699794508	340.609056634665	876.8007011786268	1667.280104116697	365.1189668857297	917.2374472887741	1739.761126298129	407.355360865971	867.3590600256139	1711.663854997435	432.2076639950258	905.7012576801809	1990.853970062129	721.2822453488178	843.0775017482447	1930.014498619374	730.0001070957869	880.9473277451185	1998.898938191767	831.2356561022315	836.6280130801266	1943.438977556982	839.9051642553101	875.669076879047	2157.999510792186	1105.970145876337	1160.93304959466	2329.519113948177	127.7658873672028	1130.154363122447	2138.432331962014	83.26983109269901	1070.522152009803	2153.648762446249	96.54698104589846	1117.757611133958	2146.48538550849	128.693156624354	1082.110070725718	2108.965950812058	1209.588080095126	1201.079016779021	2360.841110010515	106.4269495942084	1084.825254244678	2306.263587702226	71.32261285958356	1180.961991208286	1994.393942725796	1180.900510053489	1073.843662229376	2186.021626710347	242.8902054467003	1150.410926360549	2153.617566955303	244.8252250644307	1110.470197993408	2174.256868195562	326.3178128723978	1162.143494457297	2138.627758186831	323.5922400208655	1122.112632574507	2160.940796734576	715.9400430926599	1183.608010179085	2105.089279939778	695.1517282348491	1141.372446197934	2113.60044466716	814.3339577424036	1194.076053742975	2060.489947530759	795.2551772585028	1154.683318148777	
1128	7.513333333333334	2167.020338479285	1100.062281503962	889.9670058252301	1536.482979037702	292.5358316425443	947.9074936334605	1556.053265210207	285.7858554842944	906.5076429376198	1576.924193359517	313.2067030771414	940.5056357828054	2124.683726734643	1207.759998293221	853.9917253037386	1690.433324382288	123.5399759515913	956.3960642735116	1634.492138414358	139.8621174000214	858.355058006551	1999.861615596603	1181.646604662835	970.7190409073379	1689.892919330925	348.7412553252229	875.4265730132653	1662.411051366361	374.0309113087348	916.2152486052501	1736.125536319955	413.9315328243327	866.2008171290821	1709.100994485974	439.6134614327867	904.8108961672823	1994.62827636123	720.1833163322875	842.576400314373	1933.325364847502	728.4749278440398	879.8876060701906	2002.024819181618	830.1683815504857	836.2981657647302	1946.142796542887	838.3648652293973	874.9379713339406	2158.212313888669	1105.029091621122	1161.439203278622	2342.479158096574	130.9065811394428	1128.24084394692	2153.279345017605	76.924275718687	1069.594219261687	2168.08843410101	91.13236011237144	1116.681392414553	2159.160661022085	122.7834483311777	1080.981567740725	2109.559800547969	1208.716675909675	1201.7512817361	2374.646217774335	110.9916679444188	1082.860816359588	2322.190061412949	73.5969753538418	1179.384377659223	1994.529747766704	1180.047164544235	1074.785083200474	2194.819812155564	239.8586109036276	1149.102733687399	2162.064241110393	240.6487749577526	1109.405469120986	2180.237604583296	322.8205498592866	1160.926575523676	2144.404537473287	318.8399148310681	1121.149985067468	2158.170873491636	713.6298951653858	1183.378757563789	2102.332654782588	693.5439022168621	1140.837946246146	2111.728545208606	812.4773360547757	1194.099385700277	2058.631567401022	794.0882346499369	1154.507428153879	
1129	7.52	2167.698183835895	1099.248851082205	890.5636905815318	1529.273943968851	304.9700043651202	946.5411585006671	1548.662010514438	297.9730605373126	905.1067612891454	1570.262576563454	324.6306452272587	939.2741761045801	2125.027413035442	1206.904413316395	854.8776124607425	1678.997958843971	132.0621958734373	954.2446458411023	1623.496483268357	150.398529623576	856.1492056400608	2000.026162674668	1180.290703440706	971.5257960408858	1684.645819652158	356.9198871624435	874.0791394404548	1658.30852359924	383.0552892479233	915.1326000268912	1733.297806059364	420.4007393405992	865.0370075925459	1707.357049696574	446.9751713908227	903.8500624992001	1998.891335603254	718.4550561983491	842.1017346228839	1937.089015876124	726.2284770334315	878.8299053710322	2005.455990645671	828.4795300228087	835.9851147554555	1949.142149988595	836.1268750270651	874.2127741132059	2158.198272787616	1103.672659501921	1162.091082500838	2353.260184834492	133.4756446776933	1125.951283048372	2165.903892747043	71.41749196286875	1068.551355245072	2180.43930855796	86.33888548989646	1115.495186375505	2169.916137421079	117.55612327082	1079.823168044422	2109.698971241453	1207.250269696577	1202.441083349955	2385.985315757102	114.9195426399658	1080.43455914746	2335.714647248302	75.40840566851345	1177.325180652521	1994.47185785971	1178.578424896833	1075.609765624261	2202.266013682121	237.0243879250723	1147.700357819111	2169.190334012818	236.8354048924518	1108.233245393662	2185.309034745079	319.520881962648	1159.625908634474	2149.274761416157	314.4716791203248	1120.1067411337	2155.877444822339	711.2094413300664	1183.085182339064	2100.063415520724	691.7238508922201	1140.285148630923	2110.17520125696	810.4217547376392	1194.071257615156	2057.092475844182	792.6221320824106	1154.292978891958	
